<svg id="Capa_1" enable-background="new 0 0 512.048 512.048" height="512" viewBox="0 0 512.048 512.048" width="512" xmlns="http://www.w3.org/2000/svg"><g><g><g><path d="m491.836 396.948c-14.992-31.347-21.806-34.754-55.879-40.887-34.072-6.133-55.879-12.266-77.004-34.072-13.361-13.792-37.078-15.319-58.743-18.025l-12.191 65.696 12.191 70.528c3.018-5.821 9.751-8.689 15.421-8.174 14.992 1.363 27.248 12.16 45.366-8.489 14.651-16.697 34.516-11.57 44.635 1.022 15.333 19.081 29.643 22.147 55.538 16.696 25.896-5.452 45.658-12.948 30.666-44.295z" fill="#0cba68"/><path d="m266.958 295.412c-23.851-13.629-37.48-2.726-64.738-4.089-48.058-2.403-59.967-29.302-85.181-10.222-25.214 19.081-37.48 16.355-68.145 18.399s-44.976 38.842-23.851 56.56 55.879 5.13 74.959 33.23 40.205 56.721 83.137 50.588c42.931-6.133 59.967 9.54 66.441 17.036s21.125 26.917 36.798 21.125c15.264-5.641 13.536-21.856 12.5-27.931-.666-3.911-.064-7.231 1.331-9.922v-136.222c-12.587-1.573-24.485-3.543-33.251-8.552z" fill="#0ed678"/></g><g><path d="m505.368 390.476c-17.536-36.668-29.021-42.386-66.753-49.178-34.226-6.16-51.361-11.655-68.888-29.747-15.796-16.305-40.076-19.186-61.499-21.727-2.673-.317-5.362-.638-8.017-.983l-12.191 9.818 12.191 20.418c1.497.182 2.993.361 4.483.538 17.262 2.048 35.111 4.166 43.486 12.81 25.084 25.893 52.233 32.479 85.12 38.398 29.755 5.356 32.185 5.794 45.003 32.596 4.956 10.362 3.574 13.75 3.399 14.103-1.022 2.071-5.951 5.322-23.622 9.042-20.269 4.267-28.999 3.216-40.756-11.413-8.436-10.498-21.114-16.931-33.914-17.208-12.636-.28-24.57 5.298-33.688 15.689-7.825 8.917-10.697 8.202-20.227 5.823-3.67-.916-7.83-1.954-12.507-2.379-5.727-.519-11.607.686-16.779 3.267l-12.191 27.651 12.191 39.591c11.462-8.173 16.438-22.486 13.456-39.993-.031-.183-.047-.329-.054-.442.218-.107.508-.196.661-.196 2.373.216 5.086.893 7.959 1.61 12.006 2.996 30.149 7.524 50.039-15.143 3.195-3.641 6.645-5.485 10.258-5.485.077 0 .154 0 .23.003 3.987.086 8.271 2.388 11.18 6.007 9.719 12.093 19.701 19.27 31.417 22.585 10.628 3.007 22.628 2.819 38.903-.607 17.247-3.631 36.319-8.866 44.343-25.118 5.488-11.116 4.43-24.307-3.233-40.33z" fill="#acd6fd"/><path d="m291.371 426.914c-6.349 6.864-8.934 15.996-7.278 25.715 1.646 9.658-1.434 10.795-2.912 11.342-1.704.634-6.38-.445-18.474-14.773-.642-.761-1.235-1.462-1.773-2.086-13.467-15.594-33.825-23.602-59.552-23.602-6.457 0-13.254.505-20.362 1.521-32.682 4.67-49.048-15.361-68.606-44.165-14.458-21.292-35.472-24.955-52.357-27.899-10.404-1.814-19.391-3.38-25.372-8.397-6.273-5.262-4.714-12.68-3.752-15.626 2.035-6.229 8.222-13.759 18.961-14.475 4.626-.309 8.784-.503 12.806-.691 22.292-1.044 38.398-1.798 63.394-20.714 7.11-5.38 9.712-4.881 24.563 1.056 11.639 4.653 27.579 11.025 50.816 12.187 10.956.546 19.727-.607 27.467-1.625 12.581-1.655 19.513-2.567 30.578 3.756 11.648 6.656 26.235 8.88 40.695 10.642v-30.236c-10.174-1.324-19.816-3.027-25.811-6.453-19.84-11.337-34.854-9.361-49.375-7.452-6.793.894-13.817 1.82-22.056 1.406-18.243-.912-30.428-5.783-41.179-10.081-15.336-6.13-32.717-13.079-53.803 2.879-17.582 13.306-26.104 13.705-46.693 14.669-3.973.186-8.477.397-13.398.725-21.127 1.409-38.979 15.184-45.482 35.095-5.856 17.93-.878 36.293 12.99 47.925 12.162 10.201 26.686 12.732 39.499 14.966 15.733 2.743 25.729 4.944 32.69 15.197 15.966 23.513 39.377 57.998 84.213 57.996 4.284 0 8.768-.315 13.455-.985 17.304-2.473 40.54-2.399 52.968 11.992.472.547.99 1.161 1.552 1.827 6.913 8.19 21.623 25.621 40.59 25.619 3.591 0 7.337-.625 11.209-2.056 3.191-1.18 6.071-2.702 8.631-4.527v-67.241c-3.316 1.651-6.342 3.865-8.842 6.569z" fill="#c4e2fe"/></g></g><g><path d="m188.735 351.104h-30v-134.588l30-5.524z" fill="#ae6834"/><g><g><path d="m422.162 17.881-121.951 67.445-12.191 32 12.191 32 121.93 67.19h19.546v-23.025l-100.333-76.292 100.333-76.279v-23.039z" fill="#fdae02"/><path d="m158.735 17.881v23.287l97.285 76.031-97.285 76.08v23.237h19.229l122.247-67.19v-64l-122.32-67.445z" fill="#fdcb02"/></g><path d="m441.687 193.491v-152.571l-114.434 76.279z" fill="#28485e"/><g><path d="m422.162 17.881h-121.951l-12.191 37.111 12.191 44.179z" fill="#0cba68"/><path d="m300.211 99.171v-81.29h-122.32z" fill="#0ed678"/></g><path d="m158.735 41.168v152.111l114.434-76.08z" fill="#36607d"/><g><path d="m300.211 216.516h121.93l-121.93-81.289-12.191 46.098z" fill="#0cba68"/><path d="m177.964 216.516h122.247v-81.289z" fill="#0ed678"/></g></g></g></g></svg>