<svg id="Capa_1" enable-background="new 0 0 512 512" height="512" viewBox="0 0 512 512" width="512" xmlns="http://www.w3.org/2000/svg"><g><g><path d="m441.667 512v-156.714l-89.667 71.381-67.046 85.333z" fill="#dc4b4b"/><g><path d="m256 458.667 185.667-217.546v-123.668l-185.667 159.88-10.667 96z" fill="#0cba68"/><path d="m70.333 512h100.455l85.212-53.333v-181.334l-185.667 211.454z" fill="#0ed678"/></g><g><path d="m256 512h28.954l156.713-156.714v-114.165l-185.667 185.667-10.667 53.211z" fill="#fdae02"/><path d="m170.788 512h85.212v-85.212z" fill="#fdcb02"/></g><g><path d="m256 0-10.667 181.333 10.667 121.787 185.667-185.667v-117.453z" fill="#28485e"/><path d="m70.333 488.787 185.667-185.667v-303.12h-185.667z" fill="#36607d"/></g></g><g><path d="m126.667 55.333h30v30h-30z" fill="#28485e"/><path d="m355.333 55.333h30v30h-30z" fill="#1b303e"/></g><g><g><path d="m256 213.333-10.667 117.333 10.667 106.667c61.856 0 112-50.144 112-112s-50.144-112-112-112z" fill="#1b303e"/><path d="m144 325.333c0 61.856 50.144 112 112 112v-224c-61.856 0-112 50.144-112 112z" fill="#28485e"/></g><g><path d="m256 267.667-10.667 9.667 10.667 20.333c15.256 0 27.667 12.411 27.667 27.667 0 15.255-12.411 27.666-27.667 27.666l-10.667 20.334 10.667 9.666c31.798 0 57.667-25.869 57.667-57.667 0-31.797-25.869-57.666-57.667-57.666z" fill="#6aa7fb"/><path d="m228.333 325.333c0-15.255 12.411-27.667 27.667-27.667v-30c-31.798 0-57.667 25.869-57.667 57.667s25.869 57.667 57.667 57.667v-30c-15.256 0-27.667-12.411-27.667-27.667z" fill="#7fc0fd"/></g><g><path d="m256 198.333-10.667 10.667 10.667 19.333c53.486 0 97 43.514 97 97s-43.514 97-97 97l-10.667 15 10.667 15c70.028 0 127-56.972 127-127s-56.972-127-127-127z" fill="#f7f0eb"/><path d="m159 325.333c0-53.486 43.514-97 97-97v-30c-70.028 0-127 56.972-127 127s56.972 127 127 127v-30c-53.486 0-97-43.514-97-97z" fill="#fffbf5"/></g></g><g><g><path d="m293.333 117.333c0-20.619-16.714-37.333-37.333-37.333l-10.667 37.333 10.667 37.334c20.619 0 37.333-16.715 37.333-37.334z" fill="#1b303e"/><path d="m218.667 117.333c0 20.619 16.715 37.333 37.333 37.333v-74.666c-20.619 0-37.333 16.714-37.333 37.333z" fill="#28485e"/></g><path d="m278.333 117.333c0 12.315-10.018 22.334-22.333 22.334l-10.667 20.333 10.667 9.667c28.856 0 52.333-23.477 52.333-52.334 0-28.856-23.477-52.333-52.333-52.333l-10.667 9.666 10.667 20.334c12.315 0 22.333 10.019 22.333 22.333z" fill="#f7f0eb"/><path d="m203.667 117.333c0 28.857 23.477 52.334 52.333 52.334v-30c-12.314 0-22.333-10.019-22.333-22.334 0-12.314 10.019-22.333 22.333-22.333v-30c-28.856 0-52.333 23.477-52.333 52.333z" fill="#fffbf5"/></g></g></svg>