<svg id="Capa_1" enable-background="new 0 0 512 512" height="512" viewBox="0 0 512 512" width="512" xmlns="http://www.w3.org/2000/svg"><g><g><path d="m437.02 74.981c-48.353-48.352-112.64-74.981-181.02-74.981l-10.667 256 10.667 256c68.38 0 132.667-26.629 181.02-74.98 48.351-48.353 74.98-112.64 74.98-181.02s-26.629-132.667-74.98-181.019z" fill="#28485e"/><path d="m74.98 74.981c-48.351 48.352-74.98 112.639-74.98 181.019s26.629 132.667 74.98 181.02c48.353 48.351 112.64 74.98 181.02 74.98v-512c-68.38 0-132.667 26.629-181.02 74.981z" fill="#36607d"/></g><path d="m436.333 256h-30c0 36.056-12.764 69.185-34.005 95.115l21.286 21.286c26.631-31.435 42.719-72.072 42.719-116.401z" fill="#1b303e"/><path d="m256 406.333v30c44.329 0 84.966-16.088 116.402-42.719l-21.286-21.286c-25.931 21.241-59.06 34.005-95.116 34.005z" fill="#1b303e"/><path d="m256 105.667v-30c-44.329 0-84.966 16.088-116.402 42.719l21.286 21.286c25.931-21.241 59.06-34.005 95.116-34.005z" fill="#44799b"/><path d="m75.667 256h30c0-36.056 12.764-69.185 34.004-95.115l-21.286-21.286c-26.63 31.435-42.718 72.072-42.718 116.401z" fill="#44799b"/><g><path d="m256 155.667-10.667 100.333 10.667 100.333c17.376 0 33.734-4.442 48-12.248l16-88.085-16-88.086c-14.266-7.805-30.624-12.247-48-12.247z" fill="#fdae02"/><path d="m256 155.667c-17.376 0-33.734 4.442-48 12.248l-16 88.085 16 88.086c14.266 7.805 30.624 12.248 48 12.248z" fill="#fdcb02"/><path d="m155.667 256c0 37.948 21.177 71.04 52.333 88.086v-176.171c-31.156 17.045-52.333 50.137-52.333 88.085z" fill="#0dca71"/><path d="m356.333 256c0-37.947-21.177-71.04-52.333-88.085v176.171c31.156-17.046 52.333-50.138 52.333-88.086z" fill="#dc4b4b"/></g><g><path d="m271 241h-15l-10.667 15 10.667 15h15z" fill="#faeee5"/><path d="m241 241h15v30h-15z" fill="#fffbf5"/></g></g></svg>