<?xml version="1.0" encoding="iso-8859-1"?>
<!-- Generator: Adobe Illustrator 21.1.0, SVG Export Plug-In . SVG Version: 6.00 Build 0)  -->
<svg version="1.1" id="US-UK" xmlns="http://www.w3.org/2000/svg" xmlns:xlink="http://www.w3.org/1999/xlink" x="0px" y="0px"
	 width="124.2841px" height="26.877px" viewBox="0 0 124.2841 26.877" enable-background="new 0 0 124.2841 26.877"
	 xml:space="preserve">
<g>
	<g>
		<path fill="#FFFFFF" d="M38.3573,20.5254h-4.7334l-1.1367,3.3564h-2.0049l4.4834-12.4189h2.083l4.4834,12.4189H39.493
			L38.3573,20.5254z M34.1141,18.9766h3.752l-1.8496-5.4482h-0.0518L34.1141,18.9766z"/>
		<path fill="#FFFFFF" d="M51.2147,19.3555c0,2.8652-1.5059,4.6816-3.7783,4.6816c-1.2988,0-2.332-0.6377-2.8486-1.6445h-0.043
			v4.4844h-1.8584V14.8281h1.7988v1.5576h0.0342c0.5332-1.041,1.5752-1.7041,2.8828-1.7041
			C49.7001,14.6816,51.2147,16.4893,51.2147,19.3555z M49.3046,19.3555c0-1.8936-0.9209-3.1074-2.3926-3.1074
			c-1.4199,0-2.375,1.2393-2.375,3.1074c0,1.8848,0.9463,3.1064,2.375,3.1064C48.3837,22.4619,49.3046,21.2568,49.3046,19.3555z"/>
		<path fill="#FFFFFF" d="M61.1796,19.3555c0,2.8652-1.5059,4.6816-3.7783,4.6816c-1.2988,0-2.332-0.6377-2.8486-1.6445h-0.043
			v4.4844h-1.8584V14.8281h1.7988v1.5576h0.0342c0.5332-1.041,1.5752-1.7041,2.8828-1.7041
			C59.6649,14.6816,61.1796,16.4893,61.1796,19.3555z M59.2694,19.3555c0-1.8936-0.9209-3.1074-2.3926-3.1074
			c-1.4199,0-2.375,1.2393-2.375,3.1074c0,1.8848,0.9463,3.1064,2.375,3.1064C58.3485,22.4619,59.2694,21.2568,59.2694,19.3555z"/>
		<path fill="#FFFFFF" d="M62.6844,11.4629h1.8594v12.4189h-1.8594V11.4629z"/>
		<path fill="#FFFFFF" d="M74.2196,21.2227c-0.2588,1.6523-1.8242,2.8311-3.8984,2.8311c-2.6592,0-4.2686-1.7988-4.2686-4.6553
			c0-2.8398,1.6348-4.7334,4.1904-4.7334c2.5137,0,4.0801,1.7725,4.0801,4.5176v0.6367h-6.3945v0.1123
			c0,1.5752,0.9463,2.6162,2.4355,2.6162c1.0586,0,1.8418-0.5332,2.0908-1.3252H74.2196z M67.9374,18.5205h4.5264
			c-0.043-1.3857-0.9209-2.3584-2.2207-2.3584C68.9442,16.1621,68.0321,17.1523,67.9374,18.5205z"/>
		<path fill="#FFFFFF" d="M90.3661,23.8818v-9.1396h-0.0605l-3.7432,9.1396h-1.4287l-3.7529-9.1396h-0.0596v9.1396h-1.7559V11.4629
			h2.2295l4.0186,9.8975h0.0684l4.0107-9.8975h2.2373v12.4189H90.3661z"/>
		<path fill="#FFFFFF" d="M102.0399,23.8818h-1.7812v-1.5322h-0.043c-0.5,1.085-1.4209,1.6953-2.8057,1.6953
			c-1.9707,0-3.1758-1.2822-3.1758-3.3555v-5.8613h1.8584v5.499c0,1.377,0.6543,2.1172,1.9365,2.1172
			c1.3428,0,2.1514-0.9287,2.1514-2.3408v-5.2754h1.8594V23.8818z"/>
		<path fill="#FFFFFF" d="M107.2821,14.665c2.1084,0,3.4775,1.1699,3.5371,2.8398h-1.7471c-0.1025-0.8779-0.748-1.4287-1.79-1.4287
			c-1.0068,0-1.6777,0.4902-1.6777,1.2139c0,0.5674,0.4131,0.9551,1.3945,1.1787l1.4717,0.3359
			c1.8496,0.4297,2.5557,1.1533,2.5557,2.4609c0,1.6523-1.541,2.7881-3.6748,2.7881c-2.2637,0-3.623-1.1104-3.7949-2.8311h1.8408
			c0.1729,0.9463,0.8184,1.4111,1.9541,1.4111c1.1191,0,1.8066-0.4648,1.8066-1.2051c0-0.585-0.335-0.9287-1.3252-1.1523
			l-1.4717-0.3447c-1.7207-0.3955-2.5723-1.2217-2.5723-2.5391C103.7889,15.7754,105.2001,14.665,107.2821,14.665z"/>
		<path fill="#FFFFFF" d="M112.4803,12.2979c0-0.5938,0.4814-1.0674,1.0752-1.0674s1.0674,0.4736,1.0674,1.0674
			c0,0.585-0.4736,1.0674-1.0674,1.0674S112.4803,12.8828,112.4803,12.2979z M112.6268,14.8281h1.8584v9.0537h-1.8584V14.8281z"/>
		<path fill="#FFFFFF" d="M122.494,17.9434c-0.1895-0.9639-0.9121-1.7295-2.125-1.7295c-1.4375,0-2.3848,1.1963-2.3848,3.1416
			c0,1.9873,0.9561,3.1406,2.4014,3.1406c1.1445,0,1.8936-0.6279,2.1084-1.6777h1.79c-0.1973,1.9277-1.7383,3.2354-3.915,3.2354
			c-2.5908,0-4.2773-1.7725-4.2773-4.6982c0-2.875,1.6865-4.6904,4.2598-4.6904c2.332,0,3.752,1.4971,3.916,3.2783H122.494z"/>
	</g>
	<g>
		<g id="Artwork_120_">
		</g>
		<path id="XMLID_1048_" fill="#FFFFFF" d="M24.665,3.3532c-0.2445-0.6213-0.809-1.4961-1.6093-2.1124
			c-0.4621-0.3558-1.0138-0.696-1.7716-0.9206C20.4762,0.0809,19.4813,0,18.2429,0H6.9198C5.6815,0,4.6865,0.0809,3.8786,0.3202
			C3.1208,0.5448,2.5692,0.885,2.107,1.2408c-0.8003,0.6163-1.3648,1.491-1.6093,2.1124C0.005,4.605,0,6.0253,0,6.9197v11.3232
			c0,0.8944,0.005,2.3148,0.4977,3.5665c0.2445,0.6213,0.809,1.4961,1.6093,2.1124c0.4621,0.3558,1.0138,0.696,1.7716,0.9206
			c0.8079,0.2394,1.8028,0.3202,3.0411,0.3202h11.3231c1.2383,0,2.2333-0.0809,3.0411-0.3202
			c0.7578-0.2246,1.3095-0.5648,1.7716-0.9206c0.8003-0.6163,1.3648-1.491,1.6093-2.1124c0.4927-1.2518,0.4977-2.6721,0.4977-3.5665
			V6.9197C25.1627,6.0253,25.1577,4.605,24.665,3.3532z M18.3562,17.3066c-0.065,0.3096-0.1837,0.6009-0.3665,0.8633
			c-0.1823,0.2615-0.4161,0.4758-0.6884,0.6367c-0.2758,0.1628-0.5651,0.2555-0.874,0.3178
			c-0.5798,0.1169-0.9767,0.1433-1.3494,0.0683c-0.3596-0.0723-0.6643-0.2376-0.9079-0.461
			c-0.3611-0.3311-0.5862-0.7784-0.6353-1.2458c-0.0576-0.5478,0.1248-1.133,0.5361-1.5642
			c0.2076-0.2175,0.4683-0.3896,0.8163-0.5246c0.3642-0.1413,0.7662-0.2257,1.3841-0.3503
			c0.1627-0.0328,0.3255-0.0656,0.4883-0.0985c0.2141-0.0431,0.3976-0.0979,0.5456-0.2788
			c0.1491-0.1822,0.1515-0.4006,0.1515-0.6204l0.0001-5.5452c0-0.4241-0.1902-0.5396-0.5952-0.4618
			c-0.2895,0.0565-6.5062,1.3102-6.5062,1.3102C10.0047,9.437,9.8815,9.5516,9.8815,9.9867l0.0001,8.1252
			c0,0.3186-0.0167,0.6012-0.0837,0.9203c-0.0651,0.3097-0.1837,0.601-0.3666,0.8633c-0.1823,0.2615-0.4161,0.4758-0.6884,0.6366
			c-0.2757,0.1628-0.5651,0.2602-0.874,0.3225c-0.5798,0.1169-0.9766,0.1433-1.3494,0.0683
			c-0.3595-0.0722-0.6642-0.2422-0.9079-0.4656c-0.361-0.3311-0.5714-0.7784-0.6205-1.2458c-0.0576-0.5478,0.11-1.133,0.5214-1.5642
			c0.2076-0.2175,0.4682-0.3896,0.8162-0.5246c0.3643-0.1413,0.7662-0.2257,1.3841-0.3503
			c0.1627-0.0328,0.3256-0.0656,0.4883-0.0985c0.2141-0.0431,0.3977-0.0979,0.5456-0.2788c0.1481-0.1809,0.165-0.3977,0.165-0.6161
			c0-1.7193,0-9.3574,0-9.3574c0-0.1261,0.011-0.21,0.0174-0.2522c0.0299-0.1969,0.109-0.3659,0.2516-0.4856
			c0.1185-0.0995,0.271-0.1681,0.4662-0.2096l0.0029-0.0006l7.4788-1.5089c0.0649-0.0132,0.6054-0.1092,0.6662-0.1145
			c0.4042-0.0349,0.6312,0.2305,0.6312,0.6613l0.0004,11.8703C18.4265,16.7005,18.4232,16.9874,18.3562,17.3066z"/>
	</g>
	<g>
		<g>
			<path fill="#FFFFFF" d="M33.4803,1.5957c1.1836,0,1.998,0.8184,1.998,2.0186c0,1.1826-0.8398,1.9971-2.0273,1.9971h-1.4014
				v2.0391h-0.9404V1.5957H33.4803z M32.0497,4.7842h1.1836c0.8096,0,1.2842-0.4189,1.2842-1.1699
				c0-0.7686-0.458-1.1875-1.2842-1.1875h-1.1836V4.7842z"/>
			<path fill="#FFFFFF" d="M36.702,3.0811h0.8682v0.7012h0.0674c0.1299-0.4492,0.6377-0.7764,1.2334-0.7764
				c0.1348,0,0.3066,0.0117,0.4033,0.0371v0.8896c-0.0762-0.0254-0.3447-0.0547-0.5039-0.0547c-0.6836,0-1.167,0.4326-1.167,1.0742
				v2.6982H36.702V3.0811z"/>
			<path fill="#FFFFFF" d="M44.0126,6.417c-0.1963,0.8145-0.9355,1.3213-1.9805,1.3213c-1.3086,0-2.1104-0.8975-2.1104-2.3574
				c0-1.4609,0.8184-2.3877,2.1064-2.3877c1.2715,0,2.0391,0.8682,2.0391,2.3037v0.3145h-3.2266v0.0508
				c0.0293,0.8008,0.4951,1.3086,1.2168,1.3086c0.5459,0,0.9189-0.1973,1.0869-0.5537H44.0126z M40.8407,4.9443h2.3076
				c-0.0205-0.7178-0.457-1.1836-1.124-1.1836S40.8915,4.2305,40.8407,4.9443z"/>
			<path fill="#FFFFFF" d="M45.288,5.6533V4.7676h2.752v0.8857H45.288z"/>
			<path fill="#FFFFFF" d="M49.2235,6.3584c0-0.8223,0.6123-1.2969,1.6992-1.3643l1.2383-0.0713V4.5283
				c0-0.4824-0.3193-0.7549-0.9355-0.7549c-0.5039,0-0.8525,0.1846-0.9531,0.5078h-0.8721
				c0.0918-0.7852,0.8301-1.2881,1.8672-1.2881c1.1455,0,1.791,0.5703,1.791,1.5352v3.1221h-0.8682V7.0088H52.119
				c-0.2725,0.457-0.7725,0.7178-1.3721,0.7178C49.8661,7.7266,49.2235,7.1934,49.2235,6.3584z M52.161,5.9678V5.5859
				l-1.1162,0.0713c-0.6299,0.042-0.915,0.2559-0.915,0.6592c0,0.4111,0.3574,0.6504,0.8477,0.6504
				C51.6571,6.9668,52.161,6.5342,52.161,5.9678z"/>
			<path fill="#FFFFFF" d="M54.2382,5.3633c0-1.4434,0.7422-2.3574,1.8965-2.3574c0.625,0,1.1533,0.2979,1.4014,0.8008h0.0674
				V1.2979h0.9014v6.3525h-0.8643V6.9287h-0.0713c-0.2725,0.5-0.8057,0.7979-1.4346,0.7979
				C54.9716,7.7266,54.2382,6.8115,54.2382,5.3633z M55.1688,5.3633c0,0.9697,0.458,1.5527,1.2217,1.5527
				c0.7598,0,1.2295-0.5918,1.2295-1.5479c0-0.9531-0.4746-1.5527-1.2295-1.5527C55.6307,3.8154,55.1688,4.4023,55.1688,5.3633z"/>
			<path fill="#FFFFFF" d="M59.7499,5.3633c0-1.4434,0.7422-2.3574,1.8965-2.3574c0.625,0,1.1533,0.2979,1.4014,0.8008h0.0674
				V1.2979h0.9014v6.3525h-0.8643V6.9287h-0.0713c-0.2725,0.5-0.8057,0.7979-1.4346,0.7979
				C60.4833,7.7266,59.7499,6.8115,59.7499,5.3633z M60.6805,5.3633c0,0.9697,0.458,1.5527,1.2217,1.5527
				c0.7598,0,1.2295-0.5918,1.2295-1.5479c0-0.9531-0.4746-1.5527-1.2295-1.5527C61.1425,3.8154,60.6805,4.4023,60.6805,5.3633z"/>
			<path fill="#FFFFFF" d="M67.7372,5.3633c0-1.4727,0.8223-2.3701,2.1562-2.3701c1.3301,0,2.1523,0.8975,2.1523,2.3701
				c0,1.4814-0.8174,2.375-2.1523,2.375C68.5546,7.7383,67.7372,6.8447,67.7372,5.3633z M71.119,5.3633
				c0-0.9902-0.4453-1.5693-1.2256-1.5693c-0.7842,0-1.2256,0.5791-1.2256,1.5693c0,0.999,0.4414,1.5742,1.2256,1.5742
				C70.6737,6.9375,71.119,6.3584,71.119,5.3633z"/>
			<path fill="#FFFFFF" d="M73.2489,3.0811h0.8691v0.7256h0.0664c0.2227-0.5078,0.6758-0.8135,1.3643-0.8135
				c1.0195,0,1.5811,0.6123,1.5811,1.6992v2.958h-0.9014V4.9189c0-0.7344-0.3193-1.0996-0.9863-1.0996s-1.0908,0.4453-1.0908,1.1582
				v2.6729h-0.9023V3.0811z"/>
		</g>
	</g>
</g>
</svg>
